<?xml version="1.0" standalone="no"?>
<!DOCTYPE svg PUBLIC "-//W3C//DTD SVG 20010904//EN"
 "http://www.w3.org/TR/2001/REC-SVG-20010904/DTD/svg10.dtd">
<svg version="1.0" xmlns="http://www.w3.org/2000/svg"
 width="172.000000pt" height="66.000000pt" viewBox="0 0 172.000000 66.000000"
 preserveAspectRatio="xMidYMid meet">

<g transform="translate(0.000000,66.000000) scale(0.100000,-0.100000)"
fill="#000000" stroke="none">
<path d="M250 565 c-181 -57 -229 -304 -82 -425 73 -60 81 -61 713 -58 565 3
575 3 614 24 92 50 139 125 139 224 0 99 -47 174 -139 224 -39 21 -48 21 -620
23 -476 2 -588 -1 -625 -12z m151 -174 c24 -25 29 -37 29 -80 0 -46 -3 -52
-30 -66 -33 -17 -80 -20 -80 -5 0 6 14 10 30 10 28 0 30 3 30 35 0 22 6 38 15
41 40 16 -6 74 -58 74 -38 0 -72 -21 -80 -49 -3 -13 1 -21 15 -24 30 -8 22
-71 -10 -75 -28 -4 -36 16 -28 72 14 93 105 129 167 67z m309 -41 l25 -41 6
43 c6 42 6 42 7 -14 1 -32 -1 -58 -6 -58 -4 0 -18 18 -32 40 l-25 41 -6 -43
c-6 -42 -6 -42 -7 15 -1 31 1 57 6 57 4 0 18 -18 32 -40z m290 -15 c0 -54 0
-55 -30 -55 -19 0 -33 7 -40 20 -7 13 -21 20 -42 20 -26 0 -29 -2 -18 -15 7
-9 19 -14 27 -11 7 3 13 1 13 -4 0 -6 -11 -10 -25 -10 -30 0 -46 27 -34 58 10
27 54 30 64 5 6 -17 7 -17 16 0 6 9 19 17 29 17 11 0 20 7 20 15 0 8 5 15 10
15 6 0 10 -25 10 -55z m85 25 c16 0 26 -8 31 -22 l7 -23 8 23 c6 15 17 22 34
22 14 0 25 -2 25 -4 0 -2 3 -11 6 -20 5 -13 -1 -16 -26 -16 -28 0 -31 -2 -20
-15 7 -9 19 -14 27 -11 7 3 13 1 13 -4 0 -17 -49 -11 -59 8 -10 16 -10 16 -11
0 0 -10 -4 -18 -10 -18 -5 0 -10 13 -10 29 0 28 -15 49 -27 38 -3 -4 -9 -21
-13 -39 -7 -28 -8 -23 -8 27 0 33 2 52 5 43 3 -11 14 -18 28 -18z m145 -25 c0
-30 -4 -55 -10 -55 -5 0 -10 25 -10 55 0 30 5 55 10 55 6 0 10 -25 10 -55z
m147 30 c3 -23 -23 -62 -34 -52 -4 4 -1 13 5 19 13 13 16 48 4 48 -4 0 -13 -5
-20 -12 -7 -7 -12 -8 -12 -2 0 31 54 30 57 -1z m-539 -27 c3 -14 -3 -18 -28
-18 -28 0 -31 -2 -20 -15 8 -10 21 -13 34 -9 16 5 18 3 10 -6 -19 -20 -59 -8
-62 18 -2 13 -1 30 2 38 8 21 60 14 64 -8z m467 -18 c0 -29 -4 -36 -22 -38
-13 -2 -23 -10 -23 -18 0 -8 -4 -14 -10 -14 -5 0 -10 25 -10 56 l0 55 33 -3
c29 -3 32 -6 32 -38z"/>
<path d="M250 290 c0 -11 5 -20 10 -20 6 0 10 9 10 20 0 11 -4 20 -10 20 -5 0
-10 -9 -10 -20z"/>
<path d="M402 290 c0 -14 2 -19 5 -12 2 6 2 18 0 25 -3 6 -5 1 -5 -13z"/>
<path d="M865 340 c-3 -5 3 -10 15 -10 12 0 18 5 15 10 -3 6 -10 10 -15 10 -5
0 -12 -4 -15 -10z"/>
<path d="M944 336 c-8 -22 3 -49 19 -43 6 2 12 14 12 27 0 27 -22 39 -31 16z"/>
<path d="M1145 340 c-3 -5 3 -10 15 -10 12 0 18 5 15 10 -3 6 -10 10 -15 10
-5 0 -12 -4 -15 -10z"/>
<path d="M795 340 c-3 -5 1 -10 9 -10 9 0 16 5 16 10 0 6 -4 10 -9 10 -6 0
-13 -4 -16 -10z"/>
<path d="M1260 320 c0 -21 4 -30 13 -27 6 2 12 14 12 27 0 13 -6 25 -12 28 -9
2 -13 -7 -13 -28z"/>
</g>
</svg>
